<?xml version="1.0" encoding="utf-8"?>
<!-- Generator: Adobe Illustrator 25.1.0, SVG Export Plug-In . SVG Version: 6.00 Build 0)  -->
<svg version="1.1" id="Capa_1" xmlns="http://www.w3.org/2000/svg" xmlns:xlink="http://www.w3.org/1999/xlink" x="0px" y="0px"
	 viewBox="0 0 1280 1153" style="enable-background:new 0 0 1280 1153;" xml:space="preserve">
<g transform="translate(0.000000,1153.000000) scale(0.100000,-0.100000)">
	<path d="M584.2,11334.9c-218.7-72-336-251-328.9-498.6c7.6-233.6,161.1-487.8,342.5-566.4c204.7-89.1,424.1-5.1,625.7,238.7
		l57.7,69.9l109.1-0.4c583.5-7.2,1014-263,1333.6-792.9c236.3-390,411.6-933.2,542.1-1678.5c63.4-358.4,112-713.4,198.3-1460.5
		c123.6-1055.4,183.7-1459,281.3-1870.7c27.8-115.8,95.3-349.1,124.7-431.8c8.1-23.1,3.7-27.5-71.6-76.4
		c-64.4-41.7-93.5-68.7-153.6-144.9c-40.3-51.1-89.7-127.2-109.9-167.2c-130.3-263.2-201.9-621.9-206.1-1039.3
		c-1.3-142.8,36.3-523.9,66.8-666.3c71.5-342.6,193.9-643.9,350.8-864.8c58.2-81.6,63.2-93.1,57.5-122.6
		c-22.9-120.1-1-380.2,42.3-496.3c30.3-81.6,115.2-218.3,168.7-271.5c113.2-110.7,259.5-185.1,420.4-212
		c94.1-15,328.6,3.8,421.1,34.5c377.3,126.6,688.2,397.9,876.4,767.9c194.6,383.7,202.9,787.6,21.7,1078.7
		c-28.7,45.9-50.9,85.4-49.2,87.6c1.7,2.2,80.9,30.5,175.2,62.4c1113.7,378,2401.9,562,3500.4,498.4c199-11.9,188.4-3,100.3-78.2
		c-305.4-258.7-505.9-631-539-999.6c-9.3-110.7,16.6-334.4,50.6-424.6c30.4-82.6,115.2-218.3,168.7-271.5
		c113.2-110.7,259.5-185.1,420.4-212c94.1-15,328.6,3.8,421.1,34.5c377.3,126.6,688.1,398.9,876.4,767.9
		c80.8,159.2,128.8,317.9,148.3,491.5c13.1,111.1-9.3,318.2-45.1,417.2c-93.5,262.5-283.1,434-547.6,493.8
		c-32.6,7.5-90.6,28.3-128.2,47.3c-486,241-1307.5,372.6-2212.8,355.8c-819.4-16.7-1704.8-157.1-2406-383.8
		c-685.4-221-1205.5-513.4-1519-855.8l-68.8-75.1l42.3,109.2c376.7,962.6,1118,1564.6,2236.4,1816.4
		c554.9,125.5,1239.5,168.8,2008.6,128.4c582-31.3,1177.3-100.1,2039.7-234.5c254.8-39.9,804-129.6,831.6-135.6
		c5.9-1.4,25.8,12.7,42.2,31.4c114,125.8,88.6,284.7-67.4,418.8c-467.5,405.5-1957.5,721-3516.2,745.9
		c-1092.9,17.2-2088.2-103.9-2877.1-351.8c-47.7-15-88.3-24.3-91.5-21.6c-9,13-113.8,302.2-152.8,423.8
		c-53.2,167-137.5,483.3-182.9,689c-81.7,367.5-121.6,585.7-264.2,1443.5c-122,736.3-151.7,900.8-216.9,1209.1
		c-258.9,1233.6-600.9,1950.6-1149.2,2412.5c-353.6,297.8-818.4,471.2-1351.5,505.7c-62.1,3.4-140.6,7.1-175.4,7.4
		c-34.8,0.3-103.1,8.1-151.3,17.9c-76.8,15.8-181.4,29.7-268.7,34.5C778.2,11373.3,645,11354.3,584.2,11334.9z M10016.5,2311.5
		c160.8-25.9,258.1-190.2,229.6-390.7c-38.9-270.5-270.8-510.4-496.3-513.3c-270.8-3.7-367.6,342.2-180.1,641.4
		c50.8,81.2,146.1,172,221.1,212.9C9853.1,2295.3,9962.6,2319.8,10016.5,2311.5z M4869.8,1767.9c52-8.5,122.3-46.9,157.1-86.2
		c87.2-101.5,101.4-254.6,39.8-431.7c-23.9-70.4-44.6-105.5-100.3-176.2c-235.8-299.2-582.5-276-635.2,42.6
		c-35,217.8,106,490,313,601.7C4706.4,1751.6,4815.9,1776.1,4869.8,1767.9z"/>
	<path d="M4212.7,9306.2c-288.3-89.3-328.3-104.5-227.8-86.9c324.5,55.2,1485.8,234.8,2048.1,315.1
		c755.4,107.7,692.5,100.1,686.8,79.5c-60.3-219.9-199.7-840.1-228.7-1014.8l-10.7-68l-138.8-20.7
		c-622.5-95.7-1194.8-221-1676.3-366.6l-121.8-36.8l161.7,23.1c252,37.6,1049.7,117.9,1246.7,125.7c220.1,8.3,475,16.3,479.1,13.7
		c1.1-0.9-6.1-65.5-16.8-142.4c-21.5-162.9-50.7-444.3-60.1-602.9c-4.6-70.3-12-113-20.1-118.8c-7.2-4.8-68-24.1-134.7-43.2
		c-248.6-71.2-548-195.6-778.4-324.6c-112.5-62.8-281.7-166.4-276.6-168.9c2.1-1.8,62.1,6.6,132.3,18
		c168.1,26.7,957.6,112.1,1016.7,109.4l45.5-1.2l0.2-60.8c0.5-33.9,13-210.1,29.1-392c26.1-312.5,28.4-326.2,33-245.9
		c13.9,211,30.1,379.3,50.2,537l22.9,169l53.5,5.6c82.1,8.7,560.4,11.3,762.7,4.8c320.4-11,320.4-11,317.4-29.3
		c-33.7-196.1-39-845.1-9.7-1132.3l10.9-100.6l31.2,152.9c64.1,308,133.9,597.7,213.8,882.5c28.6,100.8,52.1,185.1,53.9,187.2
		c11.7,18.2,988.4-131,1020.7-155.5c2.1-1.8-20.7-102.9-51-225.9c-119.4-490.5-196.4-882.7-274.2-1404.6
		c-1.8-11.2,16.5,28.7,41.4,89.2c288.9,717.9,440.3,1071,595.8,1391.7l34.5,70.5l136.9-38.4c287.8-81.3,597.7-190.2,842.5-295.1
		c142.1-61.8,354.6-161.1,388.5-182.4c18.5-11,13.1-25.5-106.1-303.5c-70.1-160-172.8-399.3-229.4-530s-97.4-234.7-91.1-230.1
		c22.4,17.3,354.1,390.5,483.7,543.9c983.8,1165.3,1620.2,2243.1,1791.6,3037.4c147.1,678.9-10.7,1163-475.8,1466.1
		c-353.7,230-881.6,348.8-1594.7,359.3c-145.9,2.5-495.2-7.4-629.3-17.6C8351.8,10438.8,6629.8,10055.3,4212.7,9306.2z
		 M7367.8,9705.3l603.2,66.7c332.2,36.1,603.5,63.7,603.8,60.8s-34-66.4-75.8-140.7c-171.8-302.5-302.5-570.7-427.3-870.1
		c-37.2-91.7-70.1-169-70.9-171.1c-1.7-2.2-72.8-5.7-159.3-8.8c-253.8-8.9-517.6-24.7-729.8-45.2c-127.1-12.4-198.2-15-198.8-9
		c-2.5,25.7,246,644.5,392.7,976.2L7367.8,9705.3z M9278,9872.2l48.8,4.2c161.9,12.1,873.5-3.5,894.5-20.2
		c2.1-1.8-49.5-95-115.5-207.7c-190.4-328.4-349.7-630.5-477.5-909.4c-48.5-104.9-70.8-143.1-81.7-140.3
		c-58.1,11.8-726.3,47-884.6,47.2c-35.7,0.2-70.7,2.5-77.8,5.8c-9.2,5,9.4,50.9,71.1,169.1c152.4,293.4,336.4,609.1,530.5,910
		L9278,9872.2z M11117.1,9627.5c18.1,1.9,139.6-85,201.4-144.3c62.9-60.2,148.4-193.8,180-279.3c29-78.7,56.3-286.3,53.1-390.4
		c-5.3-141.2-51.8-442.4-76.7-492.9c-4.7-11.5-50.7-4.4-214.2,29.2c-260,53.3-575.3,109.8-800.4,141.9l-172.3,25.7l39.5,59
		c111.7,168.4,360.6,510,557.4,764.2C11006.4,9498.1,11111.3,9626.9,11117.1,9627.5z M6809.1,8270.7c44.4,9.7,1030.4-28.8,1044-39.4
		c1.1-1.9-17.5-76.7-43.4-166.2c-24.9-89.4-62.8-243.1-84.1-340.1l-39.5-176.8l-34,2.4c-194.9,9.3-782.7-36.8-1003.3-79.1
		c-56.7-12-77.9-12.2-78.8-3.3c-2.7,27.6,104.9,422.1,176.5,645.1C6776,8205.3,6801.5,8268.9,6809.1,8270.7z M8373.4,8189.5
		c61.3,4.5,962.8-106.8,964-118.6c0.4-3.9-34.9-105.4-78.2-223.7c-44.2-119.4-96.9-269.6-117.4-334.6
		c-20.7-64-39.4-118.9-41.1-121.1c-1.7-2.2-90.9,11.4-198,31c-219.1,39.7-499.9,78.9-673.1,94.5c-64.3,6.2-121,14.1-126.2,17.6
		c-9.4,7,97.4,293.6,192.6,521.1C8342.2,8163.3,8357,8188.8,8373.4,8189.5z M9959.2,7977.9c50.6,5.3,1298.6-243.9,1321.8-263.4
		c2.1-1.8-28.7-90.8-69.3-196.9c-72.1-188.2-90.6-235-210.8-523l-57.9-136.8l-221.7,76.3c-369.5,126.6-646.1,211.1-990.8,302.3
		l-180.3,47.8l82.4,152.4c45.8,83.6,133.6,239.6,195.5,345.9C9908.8,7921.7,9945.8,7976.5,9959.2,7977.9z"/>
</g>
</svg>
